<svg width="27" height="17" viewBox="0 0 27 17" fill="none" xmlns="http://www.w3.org/2000/svg">
<path d="M13.8028 1.5L3.13354 5.14099L13.8028 8.78199L24.4721 5.14099L13.8028 1.5Z" stroke="#696969" stroke-width="1.5" stroke-miterlimit="10"/>
<path d="M6.12109 6.40879V11.2573C6.12109 12.7052 9.56002 13.8786 13.803 13.8786C18.046 13.8786 21.4849 12.7052 21.4849 11.2573V6.40879" stroke="#696969" stroke-width="1.5" stroke-miterlimit="10"/>
<path d="M2.70703 5.14099V14.7524V5.14099Z" fill="black"/>
<path d="M2.70703 5.14099V14.7524" stroke="#696969" stroke-width="1.70677" stroke-miterlimit="10"/>
<path d="M2.70709 16.5C3.64989 16.5 4.41418 15.7176 4.41418 14.7525C4.41418 13.7873 3.64989 13.0049 2.70709 13.0049C1.76429 13.0049 1 13.7873 1 14.7525C1 15.7176 1.76429 16.5 2.70709 16.5Z" fill="black"/>
</svg>
