<svg width="20" height="20" viewBox="0 0 20 20" fill="none" xmlns="http://www.w3.org/2000/svg">
<path d="M10 -1.52588e-05C10.3748 -1.52588e-05 10.7451 0.0206448 11.1099 0.0609648C11.6588 0.121655 12.0546 0.615844 11.9939 1.16478C11.9333 1.71372 11.4391 2.10954 10.8901 2.04885C10.5982 2.01658 10.3012 1.99998 10 1.99998C5.58172 1.99998 2 5.5817 2 9.99998C2 14.4183 5.58172 18 10 18C14.4183 18 18 14.4183 18 9.99998C18 9.69878 17.9834 9.40178 17.9511 9.10988C17.8904 8.56088 18.2863 8.06668 18.8352 8.00608C19.3841 7.94535 19.8783 8.34118 19.939 8.89008C19.9793 9.25488 20 9.62518 20 9.99998C20 15.5228 15.5228 20 10 20C4.47715 20 0 15.5228 0 9.99998C0 4.47713 4.47715 -1.52588e-05 10 -1.52588e-05ZM9.9684 5.8767C10.1061 6.41155 9.7841 6.95673 9.2493 7.09439C7.95512 7.42748 7 8.60348 7 9.99998C7 11.6568 8.3431 13 10 13C11.3965 13 12.5725 12.0448 12.9055 10.7507C13.0432 10.2158 13.5884 9.89388 14.1232 10.0315C14.6581 10.1692 14.9801 10.7144 14.8424 11.2492C14.2874 13.4055 12.3312 15 10 15C7.23858 15 5 12.7614 5 9.99998C5 7.66877 6.59442 5.71252 8.7507 5.15752C9.2856 5.01986 9.8308 5.34185 9.9684 5.8767ZM16.504 0.126235C16.8777 0.281025 17.1214 0.645654 17.1214 1.05011V2.87854H18.9498C19.3542 2.87854 19.7189 3.12218 19.8737 3.49586C20.0284 3.86953 19.9429 4.29965 19.6569 4.58565L16.1214 8.12118C15.9338 8.30868 15.6795 8.41408 15.4142 8.41408H13L11.1716 10.2425C10.7811 10.633 10.1479 10.633 9.7574 10.2425C9.3669 9.85198 9.3669 9.21878 9.7574 8.82828L11.5858 6.99987V4.58565C11.5858 4.32043 11.6912 4.06608 11.8787 3.87854L15.4142 0.343015C15.7002 0.0570147 16.1304 -0.0285452 16.504 0.126235ZM15.1214 3.46433L13.5858 4.99986V6.41407H15L16.5356 4.87854H16.1214C15.5691 4.87854 15.1214 4.43083 15.1214 3.87854V3.46433Z" fill="white"/>
</svg>
