<svg width="20" height="20" viewBox="0 0 20 20" fill="none" xmlns="http://www.w3.org/2000/svg">
<path d="M19.0975 0.630915L19.0411 0.139008L18.5007 0.0877443C18.4629 0.0841923 17.5593 0 16.1607 0C12.9665 0 7.05923 0.450625 3.38448 3.46877C-0.466337 6.63102 -1.05118 10.7688 1.73292 14.8938C1.68946 14.9637 1.64579 15.0343 1.60286 15.102C1.5402 15.2025 1.4787 15.3006 1.41878 15.3968C1.36234 15.495 1.30717 15.5911 1.25347 15.6848C1.14703 15.8729 1.04175 16.0485 0.950715 16.2189C0.771909 16.5629 0.613463 16.8543 0.492782 17.1252C0.432125 17.256 0.378114 17.3729 0.33096 17.4746C0.291507 17.5691 0.25796 17.6494 0.230743 17.7147C0.176521 17.845 0.147408 17.9145 0.147408 17.9145C0.142345 17.9272 0.135908 17.9432 0.131267 17.9562C-0.0476449 18.4542 0.251 18.9901 0.798178 19.1528C1.34546 19.3155 1.9341 19.0439 2.11301 18.546L2.11428 18.5426C2.11428 18.5426 2.13959 18.4721 2.18706 18.3396C2.2109 18.2734 2.24023 18.1917 2.27473 18.0957C2.30985 18.0097 2.35036 17.9109 2.39572 17.8003C2.478 17.5845 2.61313 17.3035 2.75839 16.9855C2.83329 16.8266 2.92286 16.6598 3.01179 16.4824C3.05683 16.3939 3.10314 16.3029 3.15029 16.21C3.17097 16.173 3.1927 16.1343 3.2138 16.0966C4.94679 16.9924 6.73538 17.4636 8.44042 17.4637H8.44084C11.0228 17.4637 13.3583 16.4287 15.3821 14.3876C20.0722 9.6582 19.1396 0.997252 19.0975 0.630915ZM14.3875 13.5706C12.6283 15.3446 10.6275 16.2442 8.44073 16.2441C6.66597 16.2439 5.05418 15.6505 3.83861 15.0176C3.90212 14.9137 3.96658 14.8085 4.03187 14.7018C4.16089 14.4837 4.31554 14.2707 4.46154 14.0469C4.60975 13.8237 4.76007 13.5953 4.92886 13.3718C5.09374 13.1458 5.26115 12.9159 5.43068 12.6833C5.61085 12.4568 5.79304 12.2276 5.9768 11.9966C6.06931 11.8815 6.15961 11.764 6.25497 11.6493C6.35297 11.5366 6.45129 11.4234 6.54971 11.3103C6.74719 11.0837 6.9453 10.8561 7.14341 10.6286C7.35239 10.4088 7.56115 10.1892 7.76918 9.97039C7.8733 9.86066 7.97711 9.75132 8.0808 9.64226C8.18608 9.53455 8.29737 9.4326 8.40476 9.32815C8.62144 9.12012 8.83632 8.91391 9.04856 8.71L9.20733 8.55746L9.37232 8.41269C9.48234 8.31669 9.59163 8.22136 9.69976 8.1269C9.91644 7.93759 10.1295 7.75154 10.3381 7.56933C10.5482 7.38876 10.7675 7.22574 10.9737 7.05928C11.3901 6.73105 11.7774 6.41224 12.1632 6.14987C12.5426 5.87934 12.8902 5.63137 13.1983 5.41153C13.5186 5.20628 13.7981 5.02753 14.028 4.88017C14.4885 4.58507 14.7517 4.4164 14.7517 4.4164L14.7768 4.40027C15.0165 4.24609 15.0832 3.94609 14.9241 3.71828C14.7598 3.48337 14.4174 3.41406 14.1593 3.56343C14.1593 3.56343 13.8796 3.72538 13.3898 4.00878C13.1449 4.15076 12.8472 4.32308 12.5058 4.52085C12.1759 4.73435 11.8036 4.97521 11.3974 5.23787C10.9843 5.49304 10.5666 5.80494 10.1173 6.12712C9.89471 6.29042 9.65851 6.45054 9.43055 6.62863C9.20417 6.80853 8.97293 6.99237 8.73779 7.17928C8.62017 7.27288 8.5015 7.36725 8.38198 7.46229L8.20243 7.60591L8.029 7.75749C7.79693 7.96043 7.562 8.16587 7.32517 8.37295C7.20755 8.4772 7.08603 8.57906 6.97041 8.68668C6.85638 8.79583 6.74203 8.90536 6.62757 9.015C6.39823 9.23474 6.16826 9.45526 5.93808 9.67586C5.71835 9.90502 5.49851 10.1345 5.27951 10.3628C5.17012 10.4774 5.06114 10.5917 4.95217 10.7056C4.84605 10.8216 4.74478 10.9407 4.64129 11.0574C4.4359 11.2921 4.23188 11.5251 4.03029 11.7553C3.83904 11.9929 3.64979 12.2276 3.46381 12.4583C3.27393 12.6869 3.10219 12.9214 2.9333 13.1508C2.79648 13.3399 2.65512 13.5211 2.52611 13.7048C1.14303 11.3622 0.195723 7.72984 4.2821 4.37425C7.62413 1.62941 13.1588 1.21959 16.1606 1.21959C16.8521 1.21959 17.4197 1.24157 17.8054 1.26269C17.9257 3.14977 18.0655 9.86191 14.3875 13.5706Z" fill="#696969"/>
</svg>
