<svg width="24" height="24" viewBox="0 0 24 24" fill="none" xmlns="http://www.w3.org/2000/svg">
<path d="M22.8795 19.8621C23.1617 19.9219 23.3754 20.1694 23.3748 20.4692C23.3748 20.4694 23.3748 20.4695 23.3748 20.4696L23.2376 20.4692C23.2376 20.7373 23.0178 20.9542 22.7466 20.9542L22.8795 19.8621ZM22.8795 19.8621V4.65029C23.162 4.59034 23.3755 4.34223 23.3755 4.04238C23.3755 3.69725 23.0926 3.42066 22.7473 3.42066H22.5731C22.607 3.31145 22.6266 3.19517 22.6266 3.07324C22.6266 2.38984 22.0655 1.83927 21.3778 1.83927H21.1012V1.49111C21.1012 1.17422 20.841 0.920531 20.5244 0.920531C20.2083 0.920531 19.9488 1.17453 19.9488 1.49111V1.8389H19.6722C18.9846 1.8389 18.423 2.3894 18.423 3.07287C18.423 3.1949 18.4424 3.31109 18.4763 3.42029H18.3023C17.9565 3.42029 17.674 3.69694 17.674 4.04201C17.674 4.09631 17.6812 4.14894 17.6945 4.19904C16.5229 4.38398 14.2639 4.67203 11.5554 4.67203C9.56086 4.67203 7.67674 4.50818 5.92469 4.20203C5.93888 4.15034 5.94649 4.09595 5.94649 4.03977C5.94649 3.69412 5.66302 3.41805 5.31828 3.41805H5.14337C5.17732 3.30859 5.19675 3.19222 5.19675 3.07026C5.19675 2.38691 4.6361 1.83629 3.94833 1.83629H3.67176V1.48887L3.67176 1.48865C3.67125 1.17183 3.41182 0.917918 3.09498 0.917918C2.77787 0.917918 2.51819 1.17176 2.51819 1.48887V1.83629H2.24162C1.55379 1.83629 0.99358 2.38697 0.99358 3.07026C0.99358 3.19232 1.01297 3.30869 1.04688 3.41805H0.871676C0.526482 3.41805 0.243464 3.69419 0.243464 4.03977C0.243464 4.33924 0.456986 4.58763 0.739478 4.64766M22.8795 19.8621L0.739478 4.64766M0.739478 4.64766V19.8591C0.45707 19.919 0.243464 20.1671 0.243464 20.4666C0.243464 20.8125 0.526413 21.0887 0.871676 21.0887H1.04663C1.0128 21.1979 0.993199 21.3142 0.993199 21.4365C0.993199 22.1198 1.55341 22.6705 2.24124 22.6705H2.51781V23.0183C2.51781 23.3355 2.77795 23.5892 3.09459 23.5892C3.41147 23.5892 3.671 23.3349 3.671 23.0183V22.6705H3.94681C4.63442 22.6705 5.19599 22.1204 5.19599 21.4365C5.19599 21.3144 5.17657 21.1981 5.14264 21.0887H5.31751C5.60043 21.0887 5.84024 20.9023 5.91792 20.6454C7.16715 20.8399 9.40903 21.116 12.0625 21.116C14.0501 21.116 15.942 20.9619 17.7055 20.6601C17.7864 20.9109 18.0218 21.0921 18.3015 21.0921H18.4756C18.4416 21.2014 18.4222 21.3178 18.4222 21.4399C18.4222 22.1229 18.9838 22.6739 19.6714 22.6739H19.948V23.0216C19.948 23.3383 20.208 23.5922 20.5236 23.5922C20.8407 23.5922 21.1004 23.338 21.1004 23.0216V22.6731H21.377C22.0648 22.6731 22.625 22.1224 22.625 21.4391C22.625 21.317 22.6056 21.2007 22.5718 21.0913L0.739478 4.64766ZM19.1575 19.4985V5.01391H21.8913V19.4981L19.1575 19.4985ZM1.72809 19.4955V5.01167H4.46187V19.4955H1.72809ZM5.45009 19.5801V5.11831C7.34293 5.469 9.39318 5.64631 11.555 5.64631C14.5792 5.64631 17.0739 5.29309 18.1674 5.10952V19.5857C16.2869 19.9545 14.2354 20.1413 12.0628 20.1413C8.93336 20.1413 6.39046 19.7479 5.45009 19.5801Z" fill="#696969" stroke="#696969" stroke-width="0.274302"/>
<path d="M6.84134 6.30994L6.71311 6.27438L6.67369 6.40148L6.56969 6.73682L6.52855 6.86947L6.6617 6.90894C6.74622 6.934 8.51299 7.44808 11.8088 7.44808C15.3254 7.44808 17.0322 6.93391 17.1154 6.90804L17.2475 6.86696L17.2053 6.73524L17.0982 6.40102L17.0575 6.27398L16.9294 6.31113L16.929 6.31124C16.8993 6.32013 15.2183 6.82311 11.8088 6.82311C8.63169 6.82311 6.88244 6.32173 6.84203 6.31014C6.84165 6.31003 6.84142 6.30997 6.84134 6.30994Z" fill="#696969" stroke="#696969" stroke-width="0.274302"/>
<path d="M6.84134 7.90852L6.71311 7.87296L6.67369 8.00006L6.56969 8.3354L6.52855 8.46805L6.6617 8.50752C6.74624 8.53258 8.51301 9.04629 11.8088 9.04629C15.3254 9.04629 17.0322 8.53212 17.1154 8.50624L17.2475 8.46517L17.2053 8.33344L17.0982 7.99922L17.0567 7.86957L16.9267 7.91014L16.9266 7.91017C16.9249 7.91069 16.8986 7.91864 16.8474 7.93226C16.7943 7.94635 16.7149 7.9664 16.6091 7.99042C16.3973 8.03847 16.0796 8.1024 15.6547 8.16629C14.805 8.29406 13.5263 8.42169 11.8088 8.42169C8.63169 8.42169 6.88245 7.92031 6.84203 7.90872C6.84165 7.90861 6.84142 7.90855 6.84134 7.90852Z" fill="#696969" stroke="#696969" stroke-width="0.274302"/>
<path d="M11.946 10.157V10.0198H11.8088C10.2051 10.0198 8.96541 9.8922 8.12576 9.7643C7.70593 9.70035 7.38611 9.63633 7.17084 9.58817C7.0632 9.56409 6.9817 9.54398 6.9269 9.52982C6.8995 9.52274 6.87879 9.51716 6.86482 9.51331C6.85173 9.5097 6.84486 9.5077 6.84402 9.50746C6.84395 9.50743 6.84392 9.50743 6.84394 9.50743L6.7139 9.46859L6.67369 9.59822L6.56969 9.93356L6.52855 10.0662L6.6617 10.1057C6.74624 10.1307 8.51301 10.6444 11.8088 10.6444H11.946V10.5073V10.157Z" fill="#696969" stroke="#696969" stroke-width="0.274302"/>
<path d="M9.31012 13.1058L9.17398 13.0931L9.16092 13.2292L9.12739 13.5784L9.11424 13.7154L9.25128 13.7281C10.0601 13.8029 10.9207 13.8412 11.8088 13.8412C15.3253 13.8412 17.0319 13.3274 17.1158 13.301L17.2473 13.2597L17.2053 13.1284L17.0983 12.7938L17.0559 12.6614L16.9241 12.7055L16.9238 12.7056C16.9101 12.7097 16.4906 12.8353 15.6548 12.961C14.805 13.0887 13.5263 13.2162 11.8088 13.2162C10.9399 13.2162 10.0991 13.179 9.31012 13.1058Z" fill="#696969" stroke="#696969" stroke-width="0.274302"/>
<path d="M6.84394 14.3027L6.71394 14.2639L6.67371 14.3935L6.5697 14.7284L6.5287 14.8605L6.66109 14.9004C6.74624 14.9261 8.5132 15.4397 11.8088 15.4397C15.3252 15.4397 17.0322 14.9256 17.116 14.8991L17.2473 14.8576L17.2053 14.7265L17.0982 14.3926L17.0558 14.2604L16.9241 14.3044L16.9237 14.3045C16.91 14.3087 16.4906 14.4342 15.6547 14.5599C14.805 14.6876 13.5263 14.8151 11.8088 14.8151C10.2051 14.8151 8.96541 14.6875 8.12576 14.5596C7.70593 14.4956 7.38611 14.4316 7.17084 14.3835C7.0632 14.3594 6.9817 14.3393 6.9269 14.3251C6.8995 14.318 6.87879 14.3124 6.86482 14.3086C6.85174 14.305 6.84486 14.303 6.84402 14.3027C6.84395 14.3027 6.84392 14.3027 6.84394 14.3027Z" fill="#696969" stroke="#696969" stroke-width="0.274302"/>
<path d="M6.84394 15.9009L6.7139 15.8621L6.67369 15.9917L6.56969 16.3271L6.52855 16.4597L6.6617 16.4992C6.74622 16.5242 8.51299 17.0383 11.8088 17.0383C15.3252 17.0383 17.0322 16.5242 17.116 16.4977L17.2473 16.4562L17.2053 16.3251L17.0982 15.9909L17.0558 15.8586L16.9241 15.9027L16.9237 15.9028C16.9102 15.9068 16.4907 16.0325 15.6547 16.1583C14.805 16.2861 13.5263 16.4137 11.8088 16.4137C10.2051 16.4137 8.96542 16.286 8.12577 16.158C7.70594 16.094 7.38613 16.0299 7.17086 15.9817C7.06322 15.9576 6.98172 15.9375 6.92692 15.9233C6.89953 15.9163 6.87881 15.9107 6.86484 15.9068C6.8517 15.9032 6.84481 15.9012 6.84401 15.901C6.84395 15.9009 6.84392 15.9009 6.84394 15.9009Z" fill="#696969" stroke="#696969" stroke-width="0.274302"/>
<path d="M6.56968 17.9257L6.52859 18.0583L6.6617 18.0978C6.74624 18.1228 8.51301 18.6365 11.8088 18.6365H11.946V18.4994V18.1487V18.0116H11.8088C10.2051 18.0116 8.96541 17.8839 8.12576 17.756C7.70593 17.6921 7.38611 17.628 7.17084 17.5799C7.0632 17.5558 6.9817 17.5357 6.9269 17.5215C6.8995 17.5145 6.87879 17.5089 6.86482 17.505C6.85174 17.5014 6.84486 17.4994 6.84402 17.4992C6.84395 17.4991 6.84392 17.4991 6.84394 17.4991L6.71386 17.4603L6.67368 17.59L6.56968 17.9257Z" fill="#696969" stroke="#696969" stroke-width="0.274302"/>
</svg>
