<svg width="18" height="22" viewBox="0 0 18 22" fill="none" xmlns="http://www.w3.org/2000/svg">
<path d="M11.863 18.7835H6.16106C5.70574 18.7835 5.12623 18.7333 4.74335 18.3512C4.37081 17.9792 4.38116 17.5167 4.39151 17.205V16.3101C1.78373 14.6209 0.065918 11.685 0.065918 8.88985C0.065918 6.24551 1.28702 3.77209 3.40842 2.11309C5.52982 0.454087 8.31349 -0.169292 11.0351 0.413869C13.6222 0.966869 15.8574 2.64598 17.0164 4.90825C19.262 9.30209 17.0992 14.0579 13.6429 16.3202V17.0743C13.6532 17.3658 13.6636 17.8987 13.2393 18.321C12.9185 18.6227 12.4632 18.7835 11.863 18.7835ZM5.9334 17.2653C5.98514 17.2653 6.05758 17.2753 6.15072 17.2753H11.863C11.9664 17.2753 12.0389 17.2653 12.0803 17.2552C12.0803 17.2251 12.0803 17.1849 12.0803 17.1547V15.8878C12.0803 15.6264 12.2251 15.375 12.4528 15.2443C15.5159 13.4446 17.5442 9.33225 15.609 5.5618C14.657 3.70171 12.815 2.32423 10.6832 1.87178C8.42732 1.38916 6.11967 1.90194 4.36046 3.27942C2.60125 4.65689 1.59747 6.69796 1.59747 8.88985C1.59747 11.685 3.58434 14.0981 5.55051 15.2544C5.78853 15.3951 5.92305 15.6365 5.92305 15.8979V17.2552C5.9334 17.2552 5.9334 17.2552 5.9334 17.2653Z" fill="#696969"/>
<path d="M12.6185 21.8C12.5461 21.8 12.4736 21.79 12.4012 21.7699C10.166 21.1465 7.81691 21.1465 5.58163 21.7699C5.16769 21.8805 4.74341 21.6492 4.61923 21.247C4.49506 20.8448 4.74341 20.4326 5.15735 20.3119C7.66169 19.6182 10.3212 19.6182 12.8255 20.3119C13.2394 20.4225 13.4774 20.8448 13.3636 21.247C13.2705 21.5889 12.96 21.8 12.6185 21.8Z" fill="#696969"/>
</svg>
